# Blender 3.3.1
# www.blender.org
mtllib custom.mtl
o Cube
v -1.000000 -1.000000 1.000000
v -1.000000 1.000000 1.000000
v -1.000000 -1.000000 -1.000000
v -1.000000 1.000000 -1.000000
v 1.000000 -1.000000 1.000000
v 1.000000 1.000000 1.000000
v 1.000000 -1.000000 -1.000000
v 1.000000 1.000000 -1.000000
v 2.400301 1.000000 -1.000000
v 2.400301 -1.000000 -1.000000
v 2.400301 -1.000000 1.000000
v 2.400301 1.000000 1.000000
v 3.968192 1.000000 -1.000000
v 3.968192 -1.000000 -1.000000
v 3.968192 -1.000000 1.000000
v 5.167884 0.431577 0.633957
v 5.872114 1.002930 -0.921940
v 5.872114 -0.997070 -0.921940
v 5.872114 -0.997070 1.078060
v 7.071806 0.434507 0.712016
v 5.142173 3.014719 -0.429159
v 6.341865 2.446296 1.204798
v 7.046095 3.017650 -0.351099
v 8.245787 2.449226 1.282857
v 5.945431 4.939583 -0.216008
v 5.945431 4.939583 1.783992
v 7.849353 4.942513 -0.137948
v 7.849353 4.942513 1.862051
v 5.815842 6.413082 1.263805
v 5.815842 6.413082 3.263805
v 7.719764 6.416012 1.341864
v 7.719764 6.416012 3.341864
v -3.999594 2.487676 1.288724
v -3.999594 2.487676 -0.711276
v -0.566126 2.678598 -0.434325
v -1.999594 2.487676 1.288724
v -2.690167 4.765119 -0.381723
v -2.690167 4.765119 -2.381723
v 0.743301 4.956040 -2.104771
v -0.690167 4.765119 -0.381723
vn -1.0000 -0.0000 -0.0000
vn -0.0000 -0.0000 -1.0000
vn -0.0000 1.0000 -0.0000
vn -0.0000 -0.0000 1.0000
vn -0.0000 -1.0000 -0.0000
vn 0.5825 0.7688 0.2637
vn 0.1382 0.9845 0.1084
vn -0.0398 0.2787 0.9596
vn 0.0934 0.0732 0.9929
vn 0.8749 -0.3424 -0.3424
vn 0.0015 -1.0000 -0.0000
vn 0.7365 -0.2512 -0.6281
vn 0.0410 -0.0000 -0.9992
vn -0.9477 0.0303 0.3176
vn 0.0393 0.2511 -0.9672
vn -0.7365 0.2512 0.6281
vn -0.0393 -0.2511 0.9672
vn 0.0278 0.7096 -0.7041
vn 0.0406 0.0932 -0.9948
vn 0.9477 -0.0303 -0.3176
vn -0.0395 -0.2321 0.9719
vn -0.0015 1.0000 -0.0000
vn 0.9962 0.0876 -0.0000
vn -0.0278 -0.7096 0.7041
vn -0.9962 -0.0876 -0.0000
vn -0.0000 0.5914 0.8064
vn -0.4443 -0.8959 -0.0000
vn -0.0000 -0.1905 0.9817
vn 0.0375 0.3104 -0.9499
vn -0.0370 0.9986 0.0370
vn 0.0972 -0.6244 -0.7750
vn 0.7668 0.0294 0.6412
vn -0.8669 0.4984 -0.0000
vt 0.375000 0.000000
vt 0.375000 1.000000
vt 0.125000 0.750000
vt 0.625000 0.000000
vt 0.625000 1.000000
vt 0.375000 0.250000
vt 0.125000 0.500000
vt 0.625000 0.250000
vt 0.375000 0.750000
vt 0.625000 0.750000
vt 0.375000 0.500000
vt 0.625000 0.500000
vt 0.625000 0.500000
vt 0.375000 0.500000
vt 0.375000 0.750000
vt 0.625000 0.750000
vt 0.625000 0.500000
vt 0.375000 0.500000
vt 0.375000 0.750000
vt 0.625000 0.750000
vt 0.625000 0.500000
vt 0.375000 0.500000
vt 0.375000 0.750000
vt 0.625000 0.750000
vt 0.625000 0.500000
vt 0.625000 0.750000
vt 0.625000 0.500000
vt 0.625000 0.750000
vt 0.625000 0.500000
vt 0.625000 0.750000
vt 0.625000 0.500000
vt 0.625000 0.750000
vt 0.625000 0.500000
vt 0.625000 0.750000
vt 0.625000 0.500000
vt 0.625000 0.750000
vt 0.625000 1.000000
vt 0.625000 0.000000
vt 0.625000 0.250000
vt 0.625000 0.500000
vt 0.625000 0.750000
vt 0.625000 1.000000
vt 0.875000 0.750000
vt 0.625000 0.000000
vt 0.875000 0.500000
vt 0.625000 0.250000
vt 0.625000 0.500000
vt 0.625000 0.750000
s 0
f 1/1/1 2/4/1 4/8/1 3/6/1
f 3/6/2 4/8/2 8/12/2 7/11/2
f 8/12/3 6/10/3 12/16/3 9/13/3
f 5/9/4 6/10/4 2/5/4 1/2/4
f 3/7/5 7/11/5 5/9/5 1/3/5
f 6/10/6 8/12/6 35/40/6 36/41/6
f 9/13/7 12/16/7 16/20/7 13/17/7
f 7/11/2 8/12/2 9/13/2 10/14/2
f 6/10/4 5/9/4 11/15/4 12/16/4
f 5/9/5 7/11/5 10/14/5 11/15/5
f 16/20/8 15/19/8 19/23/8 20/24/8
f 10/14/2 9/13/2 13/17/2 14/18/2
f 12/16/9 11/15/9 15/19/9 16/20/9
f 11/15/5 10/14/5 14/18/5 15/19/5
f 18/22/10 17/21/10 20/24/10 19/23/10
f 15/19/11 14/18/11 18/22/11 19/23/11
f 20/24/12 17/21/12 23/27/12 24/28/12
f 14/18/13 13/17/13 17/21/13 18/22/13
f 21/25/14 22/26/14 26/30/14 25/29/14
f 17/21/15 13/17/15 21/25/15 23/27/15
f 13/17/16 16/20/16 22/26/16 21/25/16
f 16/20/17 20/24/17 24/28/17 22/26/17
f 27/31/18 25/29/18 29/33/18 31/35/18
f 23/27/19 21/25/19 25/29/19 27/31/19
f 24/28/20 23/27/20 27/31/20 28/32/20
f 22/26/21 24/28/21 28/32/21 26/30/21
f 29/33/22 30/34/22 32/36/22 31/35/22
f 28/32/23 27/31/23 31/35/23 32/36/23
f 26/30/24 28/32/24 32/36/24 30/34/24
f 25/29/25 26/30/25 30/34/25 29/33/25
f 33/37/26 36/41/26 40/48/26 37/42/26
f 4/8/27 2/4/27 33/38/27 34/39/27
f 2/5/28 6/10/28 36/41/28 33/37/28
f 8/12/29 4/8/29 34/39/29 35/40/29
f 39/47/30 38/45/30 37/43/30 40/48/30
f 35/40/31 34/39/31 38/46/31 39/47/31
f 36/41/32 35/40/32 39/47/32 40/48/32
f 34/39/33 33/38/33 37/44/33 38/46/33
